<mxfile host="app.diagrams.net" modified="2023-04-10T18:14:26.014Z" agent="Mozilla/5.0 (Windows NT 10.0; Win64; x64) AppleWebKit/537.36 (KHTML, like Gecko) Chrome/111.0.0.0 Safari/537.36" etag="pIBB7sedcrZ-4bbZ4G0L" version="21.1.5" type="device">
  <diagram name="Página-1" id="9z4j_WpwlolBzk-_hQlZ">
    <mxGraphModel dx="712" dy="729" grid="1" gridSize="10" guides="1" tooltips="1" connect="1" arrows="1" fold="1" page="1" pageScale="1" pageWidth="827" pageHeight="1169" math="0" shadow="0">
      <root>
        <mxCell id="0" />
        <mxCell id="1" parent="0" />
        <mxCell id="eKlCcEgIWFv4ksgkBwzY-22" style="edgeStyle=orthogonalEdgeStyle;rounded=0;orthogonalLoop=1;jettySize=auto;html=1;exitX=0.5;exitY=1;exitDx=0;exitDy=0;exitPerimeter=0;entryX=0.5;entryY=0;entryDx=0;entryDy=0;entryPerimeter=0;" edge="1" parent="1" source="eKlCcEgIWFv4ksgkBwzY-1" target="eKlCcEgIWFv4ksgkBwzY-2">
          <mxGeometry relative="1" as="geometry" />
        </mxCell>
        <mxCell id="eKlCcEgIWFv4ksgkBwzY-1" value="&lt;font style=&quot;font-size: 18px;&quot;&gt;Inicio&lt;/font&gt;" style="strokeWidth=2;html=1;shape=mxgraph.flowchart.start_1;whiteSpace=wrap;" vertex="1" parent="1">
          <mxGeometry x="364" y="30" width="100" height="60" as="geometry" />
        </mxCell>
        <mxCell id="eKlCcEgIWFv4ksgkBwzY-23" style="edgeStyle=orthogonalEdgeStyle;rounded=0;orthogonalLoop=1;jettySize=auto;html=1;exitX=0.5;exitY=1;exitDx=0;exitDy=0;exitPerimeter=0;" edge="1" parent="1" source="eKlCcEgIWFv4ksgkBwzY-2" target="eKlCcEgIWFv4ksgkBwzY-3">
          <mxGeometry relative="1" as="geometry" />
        </mxCell>
        <mxCell id="eKlCcEgIWFv4ksgkBwzY-2" value="&quot;Informe o seu sexo (M, F)&quot;" style="strokeWidth=2;html=1;shape=mxgraph.flowchart.display;whiteSpace=wrap;" vertex="1" parent="1">
          <mxGeometry x="274" y="130" width="280" height="60" as="geometry" />
        </mxCell>
        <mxCell id="eKlCcEgIWFv4ksgkBwzY-24" style="edgeStyle=orthogonalEdgeStyle;rounded=0;orthogonalLoop=1;jettySize=auto;html=1;exitX=0.5;exitY=1;exitDx=0;exitDy=0;entryX=0.5;entryY=0;entryDx=0;entryDy=0;entryPerimeter=0;" edge="1" parent="1" source="eKlCcEgIWFv4ksgkBwzY-3" target="eKlCcEgIWFv4ksgkBwzY-4">
          <mxGeometry relative="1" as="geometry" />
        </mxCell>
        <mxCell id="eKlCcEgIWFv4ksgkBwzY-3" value="sex" style="html=1;strokeWidth=2;shape=manualInput;whiteSpace=wrap;rounded=1;size=26;arcSize=11;" vertex="1" parent="1">
          <mxGeometry x="364" y="240" width="100" height="60" as="geometry" />
        </mxCell>
        <mxCell id="eKlCcEgIWFv4ksgkBwzY-6" style="edgeStyle=orthogonalEdgeStyle;rounded=0;orthogonalLoop=1;jettySize=auto;html=1;exitX=1;exitY=0.5;exitDx=0;exitDy=0;exitPerimeter=0;entryX=0.5;entryY=0;entryDx=0;entryDy=0;entryPerimeter=0;" edge="1" parent="1" source="eKlCcEgIWFv4ksgkBwzY-4" target="eKlCcEgIWFv4ksgkBwzY-5">
          <mxGeometry relative="1" as="geometry" />
        </mxCell>
        <mxCell id="eKlCcEgIWFv4ksgkBwzY-9" style="edgeStyle=orthogonalEdgeStyle;rounded=0;orthogonalLoop=1;jettySize=auto;html=1;exitX=0;exitY=0.5;exitDx=0;exitDy=0;exitPerimeter=0;" edge="1" parent="1" source="eKlCcEgIWFv4ksgkBwzY-4" target="eKlCcEgIWFv4ksgkBwzY-8">
          <mxGeometry relative="1" as="geometry" />
        </mxCell>
        <mxCell id="eKlCcEgIWFv4ksgkBwzY-4" value="se&lt;br&gt;sex == &quot;M&quot;" style="strokeWidth=2;html=1;shape=mxgraph.flowchart.decision;whiteSpace=wrap;" vertex="1" parent="1">
          <mxGeometry x="360" y="370" width="100" height="100" as="geometry" />
        </mxCell>
        <mxCell id="eKlCcEgIWFv4ksgkBwzY-17" style="edgeStyle=orthogonalEdgeStyle;rounded=0;orthogonalLoop=1;jettySize=auto;html=1;exitX=0.5;exitY=1;exitDx=0;exitDy=0;exitPerimeter=0;entryX=1;entryY=0.5;entryDx=0;entryDy=0;entryPerimeter=0;" edge="1" parent="1" source="eKlCcEgIWFv4ksgkBwzY-5" target="eKlCcEgIWFv4ksgkBwzY-18">
          <mxGeometry relative="1" as="geometry">
            <mxPoint x="490" y="910" as="targetPoint" />
          </mxGeometry>
        </mxCell>
        <mxCell id="eKlCcEgIWFv4ksgkBwzY-5" value="&quot;Masculino&quot;" style="strokeWidth=2;html=1;shape=mxgraph.flowchart.display;whiteSpace=wrap;" vertex="1" parent="1">
          <mxGeometry x="500" y="510" width="100" height="60" as="geometry" />
        </mxCell>
        <mxCell id="eKlCcEgIWFv4ksgkBwzY-11" style="edgeStyle=orthogonalEdgeStyle;rounded=0;orthogonalLoop=1;jettySize=auto;html=1;exitX=1;exitY=0.5;exitDx=0;exitDy=0;exitPerimeter=0;entryX=0.5;entryY=0;entryDx=0;entryDy=0;entryPerimeter=0;" edge="1" parent="1" source="eKlCcEgIWFv4ksgkBwzY-8" target="eKlCcEgIWFv4ksgkBwzY-10">
          <mxGeometry relative="1" as="geometry" />
        </mxCell>
        <mxCell id="eKlCcEgIWFv4ksgkBwzY-12" style="edgeStyle=orthogonalEdgeStyle;rounded=0;orthogonalLoop=1;jettySize=auto;html=1;exitX=0;exitY=0.5;exitDx=0;exitDy=0;exitPerimeter=0;" edge="1" parent="1" source="eKlCcEgIWFv4ksgkBwzY-8" target="eKlCcEgIWFv4ksgkBwzY-13">
          <mxGeometry relative="1" as="geometry">
            <mxPoint x="180" y="650" as="targetPoint" />
          </mxGeometry>
        </mxCell>
        <mxCell id="eKlCcEgIWFv4ksgkBwzY-8" value="se&lt;br&gt;sex == &quot;F&quot;" style="strokeWidth=2;html=1;shape=mxgraph.flowchart.decision;whiteSpace=wrap;" vertex="1" parent="1">
          <mxGeometry x="250" y="485" width="100" height="100" as="geometry" />
        </mxCell>
        <mxCell id="eKlCcEgIWFv4ksgkBwzY-16" style="edgeStyle=orthogonalEdgeStyle;rounded=0;orthogonalLoop=1;jettySize=auto;html=1;exitX=0.5;exitY=1;exitDx=0;exitDy=0;exitPerimeter=0;entryX=1;entryY=0.5;entryDx=0;entryDy=0;entryPerimeter=0;" edge="1" parent="1" source="eKlCcEgIWFv4ksgkBwzY-10" target="eKlCcEgIWFv4ksgkBwzY-14">
          <mxGeometry relative="1" as="geometry" />
        </mxCell>
        <mxCell id="eKlCcEgIWFv4ksgkBwzY-10" value="&quot;Feminino&quot;" style="strokeWidth=2;html=1;shape=mxgraph.flowchart.display;whiteSpace=wrap;" vertex="1" parent="1">
          <mxGeometry x="350" y="620" width="100" height="60" as="geometry" />
        </mxCell>
        <mxCell id="eKlCcEgIWFv4ksgkBwzY-15" style="edgeStyle=orthogonalEdgeStyle;rounded=0;orthogonalLoop=1;jettySize=auto;html=1;exitX=0.5;exitY=1;exitDx=0;exitDy=0;exitPerimeter=0;entryX=0;entryY=0.5;entryDx=0;entryDy=0;entryPerimeter=0;" edge="1" parent="1" source="eKlCcEgIWFv4ksgkBwzY-13" target="eKlCcEgIWFv4ksgkBwzY-14">
          <mxGeometry relative="1" as="geometry" />
        </mxCell>
        <mxCell id="eKlCcEgIWFv4ksgkBwzY-13" value="&quot;opção inválida, (por enquanto)&quot;" style="strokeWidth=2;html=1;shape=mxgraph.flowchart.display;whiteSpace=wrap;" vertex="1" parent="1">
          <mxGeometry x="130" y="620" width="120" height="80" as="geometry" />
        </mxCell>
        <mxCell id="eKlCcEgIWFv4ksgkBwzY-19" style="edgeStyle=orthogonalEdgeStyle;rounded=0;orthogonalLoop=1;jettySize=auto;html=1;exitX=0.5;exitY=1;exitDx=0;exitDy=0;exitPerimeter=0;entryX=0;entryY=0.5;entryDx=0;entryDy=0;entryPerimeter=0;" edge="1" parent="1" source="eKlCcEgIWFv4ksgkBwzY-14" target="eKlCcEgIWFv4ksgkBwzY-18">
          <mxGeometry relative="1" as="geometry" />
        </mxCell>
        <mxCell id="eKlCcEgIWFv4ksgkBwzY-14" value="" style="strokeWidth=2;html=1;shape=mxgraph.flowchart.start_1;whiteSpace=wrap;" vertex="1" parent="1">
          <mxGeometry x="274" y="760" width="40" height="30" as="geometry" />
        </mxCell>
        <mxCell id="eKlCcEgIWFv4ksgkBwzY-21" style="edgeStyle=orthogonalEdgeStyle;rounded=0;orthogonalLoop=1;jettySize=auto;html=1;exitX=0.5;exitY=1;exitDx=0;exitDy=0;exitPerimeter=0;entryX=0.5;entryY=0;entryDx=0;entryDy=0;entryPerimeter=0;" edge="1" parent="1" source="eKlCcEgIWFv4ksgkBwzY-18" target="eKlCcEgIWFv4ksgkBwzY-20">
          <mxGeometry relative="1" as="geometry" />
        </mxCell>
        <mxCell id="eKlCcEgIWFv4ksgkBwzY-18" value="" style="strokeWidth=2;html=1;shape=mxgraph.flowchart.start_1;whiteSpace=wrap;" vertex="1" parent="1">
          <mxGeometry x="384" y="870" width="30" height="20" as="geometry" />
        </mxCell>
        <mxCell id="eKlCcEgIWFv4ksgkBwzY-20" value="Fim" style="strokeWidth=2;html=1;shape=mxgraph.flowchart.terminator;whiteSpace=wrap;" vertex="1" parent="1">
          <mxGeometry x="349" y="940" width="100" height="60" as="geometry" />
        </mxCell>
        <mxCell id="eKlCcEgIWFv4ksgkBwzY-25" value="V" style="text;html=1;align=center;verticalAlign=middle;resizable=0;points=[];autosize=1;strokeColor=none;fillColor=none;" vertex="1" parent="1">
          <mxGeometry x="355" y="505" width="30" height="30" as="geometry" />
        </mxCell>
        <mxCell id="eKlCcEgIWFv4ksgkBwzY-26" value="F" style="text;html=1;align=center;verticalAlign=middle;resizable=0;points=[];autosize=1;strokeColor=none;fillColor=none;" vertex="1" parent="1">
          <mxGeometry x="205" y="505" width="30" height="30" as="geometry" />
        </mxCell>
        <mxCell id="eKlCcEgIWFv4ksgkBwzY-27" value="V" style="text;html=1;align=center;verticalAlign=middle;resizable=0;points=[];autosize=1;strokeColor=none;fillColor=none;" vertex="1" parent="1">
          <mxGeometry x="495" y="395" width="30" height="30" as="geometry" />
        </mxCell>
        <mxCell id="eKlCcEgIWFv4ksgkBwzY-28" value="F" style="text;html=1;align=center;verticalAlign=middle;resizable=0;points=[];autosize=1;strokeColor=none;fillColor=none;" vertex="1" parent="1">
          <mxGeometry x="315" y="395" width="30" height="30" as="geometry" />
        </mxCell>
      </root>
    </mxGraphModel>
  </diagram>
</mxfile>
